PathFileType	4	(X/Y/Z)	/Users/niels/Desktop/University/Third Semester/Perception and Action/Exam/Gymnastics Motion Tracking/Code for Gym Tracking/Scripts/Analyzed Data/Start Salto/st_salto_good_id8_1_Sports2D/st_salto_good_id8_1_Sports2D_px_person00.trc
DataRate	CameraRate	NumFrames	NumMarkers	Units	OrigDataRate	OrigDataStartFrame	OrigNumFrames
156.22293616426876	156.22293616426876	8	22	m	156.22293616426876	175	467
Frame#	Time	Hip			RHip			RKnee			RAnkle			RBigToe			RSmallToe			RHeel			LHip			LKnee			LAnkle			LBigToe			LSmallToe			LHeel			Neck			Head			Nose			RShoulder			RElbow			RWrist			LShoulder			LElbow			LWrist		
		X1	Y1	Z1	X2	Y2	Z2	X3	Y3	Z3	X4	Y4	Z4	X5	Y5	Z5	X6	Y6	Z6	X7	Y7	Z7	X8	Y8	Z8	X9	Y9	Z9	X10	Y10	Z10	X11	Y11	Z11	X12	Y12	Z12	X13	Y13	Z13	X14	Y14	Z14	X15	Y15	Z15	X16	Y16	Z16	X17	Y17	Z17	X18	Y18	Z18	X19	Y19	Z19	X20	Y20	Z20	X21	Y21	Z21	X22	Y22	Z22
175	1.1201940271816881	0.07347533953464297	-0.48699014223863807	0.0	0.05945376016903102	-0.5006379387600624	0.0	0.16666561262518897	-0.5616881490977307	0.0	0.09068139631304789	-0.619559136459619	0.0	0.1321830129825899	-0.6564188788316436	0.0	0.11370789428169403	-0.6580198839348795	0.0	0.08182894509360814	-0.6230002316431514	0.0	0.09727786153878977	-0.4913462757320331	0.0	0.2008844958286014	-0.5365497949500021	0.0	0.12142411741702001	-0.6095337329377256	0.0	0.15993178861180943	-0.6482015709567969	0.0	0.1581496675759345	-0.6426609681559772	0.0	0.10153587746553114	-0.6172926054472426	0.0	0.11121731758014783	-0.30838247084077436	0.0	0.12738307611794072	-0.24058826227185992	0.0	0.15403378437337506	-0.2804636679704327	0.0	0.08298381589477088	-0.3195701393395354	0.0	0.14652899014865567	-0.31777163794818425	0.0	0.19405481277199638	-0.25276161707555156	0.0	0.14084071484751687	-0.3356614248848296	0.0	0.21942785975685222	-0.3376580790190155	0.0	0.2857938487190032	-0.3038411277564773	0.0
176	1.1265951359084407	0.08071619779152021	-0.48731210012444265	0.0	0.06595745963254335	-0.5007514134345508	0.0	0.1765554423664101	-0.5610703278446634	0.0	0.1009559993370405	-0.6222567468284573	0.0	0.14347110804722613	-0.6587437180056513	0.0	0.12487174396751327	-0.6605327764253393	0.0	0.09139097821782936	-0.6258028305962224	0.0	0.10499306860478046	-0.49162672556713344	0.0	0.2095509624553644	-0.5370321997012306	0.0	0.13186442352689492	-0.6119531107702358	0.0	0.1717118039293803	-0.6498530759361152	0.0	0.1695911059903507	-0.6441701618294872	0.0	0.1120006831224831	-0.6198881538376084	0.0	0.12065059912098056	-0.3088621284237848	0.0	0.1371381063529848	-0.24116783922126822	0.0	0.16448413516462787	-0.2815282330746634	0.0	0.09156866999890192	-0.3196692398502134	0.0	0.15705014076900548	-0.31847997809786377	0.0	0.20528869925913185	-0.2535498956847186	0.0	0.1506955931826287	-0.3363849564201253	0.0	0.2297720293744505	-0.3380695537316417	0.0	0.29581925522956887	-0.30377756992803423	0.0
177	1.132996244635193	0.08818048875998348	-0.4877018979778379	0.0	0.07277447875098075	-0.5009151911410507	0.0	0.18658765028284383	-0.5604968254936693	0.0	0.1117374344877742	-0.6251844579175062	0.0	0.15525131958961508	-0.6611751651707364	0.0	0.13659411411549777	-0.6631660675774748	0.0	0.10153370159144302	-0.6289170434959234	0.0	0.11285256607074559	-0.49198117289557985	0.0	0.21829209515259215	-0.5376328473583467	0.0	0.14258350156221863	-0.614596163005238	0.0	0.1837481774484389	-0.6516628181134988	0.0	0.18128915354468889	-0.645853554505277	0.0	0.12277352537305734	-0.6227419782065694	0.0	0.1302895436160202	-0.309438651391956	0.0	0.1470830140433601	-0.2418437538481182	0.0	0.17504703485992515	-0.2826437220904591	0.0	0.1004639161757514	-0.3198788414403537	0.0	0.16773712710747782	-0.31928845693849667	0.0	0.2165708369613948	-0.2544305399068854	0.0	0.16064271447155212	-0.3371777323470348	0.0	0.24014181487132671	-0.3385695575608125	0.0	0.3057857097236495	-0.30375487659433525	0.0
178	1.1393973533619457	0.09584954719895379	-0.4881663745356831	0.0	0.07988450677442034	-0.5011386820155037	0.0	0.19672171814641093	-0.5599972174937852	0.0	0.12299225823606764	-0.6283294312349043	0.0	0.16748960449011777	-0.6636933383744857	0.0	0.14883614509383553	-0.6659005751408541	0.0	0.11222736919311903	-0.6323238929620361	0.0	0.12084092341346325	-0.49241623687872776	0.0	0.2270894866051913	-0.5383590061427823	0.0	0.1535606248959863	-0.617454935914778	0.0	0.19601041357224813	-0.6536176397060917	0.0	0.19321637475288006	-0.6477002261734582	0.0	0.13383308512805334	-0.6258437879197296	0.0	0.14010505632699902	-0.31011609693960784	0.0	0.15719176352935388	-0.2426202096692449	0.0	0.18569463485713636	-0.28381447933517545	0.0	0.10963909806050498	-0.32020355975439807	0.0	0.17856303853186006	-0.32019725648643665	0.0	0.22787083979014255	-0.2554033299108232	0.0	0.17065585824268137	-0.3380406546543191	0.0	0.250514227602859	-0.3391597261982605	0.0	0.31566439685951936	-0.30377356910860576	0.0
179	1.145798462088698	0.10370619707773501	-0.4887120988088549	0.0	0.0872676925691197	-0.5014312263048827	0.0	0.20692031151454157	-0.5595998813053485	0.0	0.13468389453296858	-0.6316777906666361	0.0	0.18014813362420914	-0.6662795494556908	0.0	0.1615546630804207	-0.6687179296288812	0.0	0.12343809445424953	-0.6360028171707691	0.0	0.1289450571527549	-0.4929383590954865	0.0	0.23592759087072374	-0.5392183976626194	0.0	0.16477600522066557	-0.620520888977321	0.0	0.20846933740658025	-0.6557049841901686	0.0	0.20534648787448118	-0.6496991309888528	0.0	0.1451595751200099	-0.629182040199983	0.0	0.15006986274715806	-0.31089811724678457	0.0	0.16744065887108886	-0.24350099781447407	0.0	0.1964016960565989	-0.28504495860090223	0.0	0.11906450305752034	-0.32064751775892625	0.0	0.189503953005574	-0.3212059839089594	0.0	0.23916103539237232	-0.25646759345383635	0.0	0.18071130334839614	-0.3389746138754134	0.0	0.2608696616348752	-0.33984107504640365	0.0	0.32542956362929565	-0.3038340351213123	0.0
180	1.1521995708154507	0.11173507978244943	-0.4893454619976607	0.0	0.09490527802295648	-0.5018021468862307	0.0	0.21715008682798204	-0.5593314405629163	0.0	0.1467738945171602	-0.6352152134436311	0.0	0.19318661081779484	-0.6689170524330197	0.0	0.17470401992250553	-0.6716013404622978	0.0	0.13512906689817453	-0.6399322698690749	0.0	0.13715422806607114	-0.4935538851773861	0.0	0.24479375810476547	-0.5402190333817207	0.0	0.17621090866548303	-0.6237853701343711	0.0	0.22109762845177672	-0.6579135211211918	0.0	0.2176548209847551	-0.6518397991739877	0.0	0.15673515195447338	-0.6327445369418074	0.0	0.1601589457802144	-0.31178797610523135	0.0	0.1778084281058968	-0.2444895313706667	0.0	0.20714577448108068	-0.286339633224153	0.0	0.12871200868300867	-0.3212145078296032	0.0	0.20053930561184705	-0.32231371058866526	0.0	0.25041669774275216	-0.25762227247103875	0.0	0.1907880479549067	-0.3399805162463726	0.0	0.27119211882447614	-0.340613979843061	0.0	0.33505855841190074	-0.3039364519200267	0.0
181	1.1586006795422032	0.11992313751544123	-0.4900728196095153	0.0	0.10278031553926345	-0.5022608279407947	0.0	0.2273828227410217	-0.5592163102867143	0.0	0.15922365053275847	-0.6389277684065592	0.0	0.2065643356968976	-0.6715920099705927	0.0	0.18823859074618135	-0.6745366607583837	0.0	0.14726223235445418	-0.6440905325307164	0.0	0.1454601336615668	-0.494269151926388	0.0	0.2536783900263037	-0.5413690112109095	0.0	0.18784811688506434	-0.6272400238534073	0.0	0.2338708870299963	-0.6602337040748283	0.0	0.230119319793887	-0.6541130120741399	0.0	0.16854430005883006	-0.6365191149453311	0.0	0.17035016015581422	-0.3127885666464813	0.0	0.18827664295200347	-0.24558894468426745	0.0	0.21790777321003696	-0.2877030082566363	0.0	0.13855591424156644	-0.3219081082086404	0.0	0.21165232432569592	-0.32351911638448483	0.0	0.2616165246866794	-0.2588660343466213	0.0	0.20086819527585312	-0.34105935160273815	0.0	0.2814695007663635	-0.34147825525498776	0.0	0.3445321230016343	-0.3040807654103285	0.0
182	1.1650017882689556	0.12825977534472605	-0.4909005000112408	0.0	0.11087797638289577	-0.502816666515041	0.0	0.2375958761452454	-0.5592765834690966	0.0	0.17199542996158754	-0.6428025038065333	0.0	0.2202418027082112	-0.6742940895688133	0.0	0.20211441478471912	-0.6775131016516781	0.0	0.15979941444385146	-0.6484563492756112	0.0	0.1538567656667632	-0.49509044151994663	0.0	0.262574735877363	-0.5426763771187815	0.0	0.1996721699128166	-0.6308768762142433	0.0	0.24676824966769847	-0.6626577442549655	0.0	0.24272114057071364	-0.6565108012978756	0.0	0.18057373143247477	-0.6404939922698606	0.0	0.18062447713111707	-0.31390244430834513	0.0	0.1988299240752141	-0.24680220067495767	0.0	0.2286721010615738	-0.28913977396712287	0.0	0.1485732636175824	-0.32273171057722466	0.0	0.22283001698675317	-0.32482065663005066	0.0	0.2727427368839484	-0.26019733706569886	0.0	0.21093702487573238	-0.3422121925716301	0.0	0.29169336040261834	-0.34243324331174585	0.0	0.35383440244795006	-0.3042668408877402	0.0
